<svg width="18" height="18" viewBox="0 0 18 18" fill="none" xmlns="http://www.w3.org/2000/svg">
<path d="M6.53887 1.01943C7.89812 -0.339812 10.1019 -0.33981 11.4611 1.01943L14.6048 4.16311H14.1649C13.4891 4.16311 13.0296 4.39592 12.6391 4.67995L12.6124 4.69931L9.7593 7.52109L9.74896 7.5329C9.70259 7.5859 9.60137 7.68138 9.47515 7.76052C9.35096 7.83838 9.24114 7.87632 9.15894 7.87966C9.07674 7.87632 8.96692 7.83838 8.84273 7.76052C8.71651 7.68138 8.61528 7.5859 8.56891 7.5329L8.55858 7.52109L5.70545 4.69931L5.67882 4.67995C5.28829 4.39592 4.82878 4.16311 4.15302 4.16311H3.3952L6.53887 1.01943Z" fill="white"/>
<path d="M2.61283 4.94548L1.01944 6.53887C-0.33981 7.89811 -0.339812 10.1019 1.01943 11.4611L2.61194 13.0536V13.0522H4.15213C4.57835 13.0522 4.85825 12.9215 5.14021 12.7205L7.92453 9.96675C8.02381 9.85596 8.18412 9.71028 8.37963 9.58771C8.57377 9.46599 8.8428 9.3418 9.1463 9.33565C9.14938 9.33565 9.15245 9.33547 9.15551 9.3355C9.16027 9.33544 9.16503 9.33541 9.1698 9.33541C9.47331 9.34157 9.74233 9.46604 9.93648 9.58776C10.132 9.71034 10.2923 9.85601 10.3916 9.9668L13.1759 12.7205C13.4579 12.9215 13.7378 13.0523 14.164 13.0523H15.3894L16.9806 11.4611C18.3398 10.1019 18.3398 7.89812 16.9806 6.53887L15.4749 5.03325H14.1649C13.7386 5.03325 13.4587 5.16398 13.1768 5.36499L10.3925 8.1187C10.2932 8.2295 10.1329 8.37517 9.93736 8.49774C9.74322 8.61946 9.4742 8.74365 9.17069 8.7498L9.15894 8.74998L9.14719 8.75004C8.84368 8.74389 8.57466 8.61946 8.38052 8.49774C8.18501 8.37517 8.0247 8.2295 7.92541 8.1187L5.1411 5.36499C4.85913 5.16398 4.57924 5.03325 4.15302 5.03325H2.6137L2.61283 4.94548Z" fill="white"/>
<path d="M14.5193 13.9224H14.164C13.4882 13.9224 13.0287 13.6896 12.6382 13.4056L12.6115 13.3862L9.75841 10.5644L9.74808 10.5526C9.70171 10.4996 9.60048 10.4041 9.47427 10.325C9.34973 10.2469 9.23965 10.209 9.15737 10.2058C9.07524 10.2093 8.96569 10.2473 8.84184 10.3249C8.71563 10.4041 8.6144 10.4996 8.56803 10.5526L8.5577 10.5644L5.70456 13.3861L5.67793 13.4055C5.2874 13.6895 4.8279 13.9223 4.15213 13.9223H3.48065L6.53887 16.9806C7.89811 18.3398 10.1019 18.3398 11.4611 16.9806L14.5193 13.9224Z" fill="white"/>
</svg>
